<svg xmlns="http://www.w3.org/2000/svg" viewBox="0 0 135.93 93.03"><defs><style>.cls-1{fill:#faf9f5;}.cls-1,.cls-2,.cls-3,.cls-4{stroke:#1d1d1b;stroke-miterlimit:10;}.cls-3{fill:#f6a316;}.cls-4{fill:#8ccdf2;}</style></defs><g id="Capa_2" data-name="Capa 2"><g id="Capa_1-2" data-name="Capa 1"><path class="cls-1" d="M60.15,81.4l-4.23-.86,2-10Z"/><rect class="cls-1" x="57.4" y="71.82" width="3.3" height="8.34" transform="translate(16.28 -10.22) rotate(11.46)"/><path class="cls-2" d="M34.28,34.2a4.28,4.28,0,0,0,.49-.55A1.2,1.2,0,0,0,34.28,34.2Z"/><path class="cls-2" d="M59,26.91a13.93,13.93,0,0,1-1.4-1.67c-2.1-3-1.06-4.57-2.4-8.93-.29-.93-2.78-8.62-10.1-12.9A22.16,22.16,0,0,0,37.58.79,24.9,24.9,0,0,0,23,3.08C14.36,7.23,10.6,15.18,8.2,20.24a43.35,43.35,0,0,0-3.63,10.9c-.89,4.74-.38,6.66-1.65,13-.78,3.85-1.1,3.76-1.63,7-.65,4-1.17,7.15-.42,11A22.37,22.37,0,0,0,5.62,72a25,25,0,0,0,11.55,7.8c2.15.69,7.47,2.39,13.29.65,3.15-.94,6.89-3,7.77-1.93.32.4,0,.91.46,2.19a6.83,6.83,0,0,0,1.16,2.07c1.92,2.56,1.85,4.24,3.6,6.33.63.74,2.8,3.33,5.89,3.47,2.89.13,5-2,7-4,1.81-1.8,5.39-5.35,4.17-8.25-.68-1.64-2.85-3-4.18-2.43-1.77.68-1.07,4.22-4.17,8.25-.85,1.1-1.2,1.24-1.34,1.28-2.65.84-7.06-4.8-9.29-9.23a4.54,4.54,0,0,1-.71-1.55c-.33-2.71,3.25-4.36,5.21-6.88,4.23-5.43.34-14.68-2.06-27.58-.6-3.19-1.12-6.35-1.12-6.35h0a2.49,2.49,0,0,0-1.35.45c-2.36,1.74,0,7.76,2.11,19.11,1.21,6.46,1.49,10-.21,13.49-.85,1.77-2.51,4.16-3.67,3.9-1-.23-1.12-2.55-1.52-7C37,53,36.23,52.69,36.75,48.24c.54-4.66.81-7,1-7.69.58-2.14,1.24-3.53.53-5s-2.57-2.44-3.51-1.94a4.28,4.28,0,0,1-.49.55A5,5,0,0,0,34,36.15c0,8.32-2.48,9.51-1.42,19.7.79,7.58,1.18,11.38,2.35,14.24.58,1.43,1.33,3,.65,4.17-1.21,2.18-6.22,2-9.71.93-6.32-2-9.56-7.87-11-10.5-.7-1.27-2.35-4.46-3.78-12-1.49-7.92-1.63-22.14.37-22.44.59-.08.92,1.09,3.69,2.86.7.45,1.26.74,1.74,1a21.24,21.24,0,0,0,5.23,2.12,15.13,15.13,0,0,0,6-.19c3.23-.51,5.08-.79,6.23-1.84a1.2,1.2,0,0,1,.49-.55c1.7-2.37,1-6.13-.05-6.4S33.17,29.88,30,31.42a10.66,10.66,0,0,1-4.47,1.06c-4.82.18-11.67-2.58-12.68-7.46-.56-2.69.88-4.95,2.88-8.1A21.41,21.41,0,0,1,26.32,7.78a18.09,18.09,0,0,1,9.81-1.06C46.66,8.64,50.75,20,51.06,20.88a18,18,0,0,1,1.17,7.58C54.9,28.76,57.22,28.36,59,26.91Z"/><path class="cls-3" d="M70,34.85c-1-1.61-2.88-2.22-4.07-2.61a8.44,8.44,0,0,0-1-.27,11.15,11.15,0,0,1-5-3.22c-1.79,1.44-4.11,1.84-6.78,1.54,0,.15,0,.29,0,.44-.64,5.69-4.4,9.75-3.3,10.73.41.37,1.27.09,2.22-.23,1.82-.6,2.38-1.58,3.55-2.33,2.73-1.76,6.42-.79,7-.63,2.29.6,3.2,1.77,5.6,1.62a2.72,2.72,0,0,0,1.91-.66C71.1,38.21,70.79,36.13,70,34.85Z"/><circle class="cls-2" cx="39.63" cy="27.54" r="8.96"/><circle class="cls-4" cx="39.63" cy="27.54" r="7.65"/><path class="cls-2" d="M61.07,43.61a1.56,1.56,0,0,1,.49-1.19,2.07,2.07,0,0,1,2.63,0,1.56,1.56,0,0,1,.49,1.19,1.59,1.59,0,0,1-.49,1.21,2.06,2.06,0,0,1-2.62,0A1.6,1.6,0,0,1,61.07,43.61Zm3.42,15.21H61.26V46.74h3.23Z"/><path class="cls-2" d="M70.1,46.74l.1,1.4a4.22,4.22,0,0,1,3.47-1.62,3.51,3.51,0,0,1,2.85,1.12,5.36,5.36,0,0,1,1,3.38v7.8H74.26V51.09a2.09,2.09,0,0,0-.45-1.49,2,2,0,0,0-1.48-.46,2.24,2.24,0,0,0-2,1.16v8.52H67.08V46.74Z"/><path class="cls-2" d="M79.45,52.69a7.12,7.12,0,0,1,1.32-4.48,4.26,4.26,0,0,1,3.55-1.69,3.74,3.74,0,0,1,3.09,1.36l.13-1.14h2.92V58.42a5.16,5.16,0,0,1-.72,2.76,4.61,4.61,0,0,1-2,1.78,7.06,7.06,0,0,1-3,.62,6.66,6.66,0,0,1-2.58-.53,4.64,4.64,0,0,1-1.91-1.37l1.43-2a3.74,3.74,0,0,0,2.92,1.36,2.75,2.75,0,0,0,2-.69,2.61,2.61,0,0,0,.71-2v-.65A3.72,3.72,0,0,1,84.3,59a4.23,4.23,0,0,1-3.51-1.7,7,7,0,0,1-1.34-4.51Zm3.22.24a4.4,4.4,0,0,0,.65,2.58,2.1,2.1,0,0,0,1.81.93,2.23,2.23,0,0,0,2.1-1.1V50.25a2.22,2.22,0,0,0-2.08-1.11,2.11,2.11,0,0,0-1.82,1A5,5,0,0,0,82.67,52.93Z"/><path class="cls-2" d="M100.15,57.59A4,4,0,0,1,96.85,59a3.8,3.8,0,0,1-2.95-1.11,4.82,4.82,0,0,1-1.05-3.27V46.74h3.22v7.81c0,1.26.57,1.89,1.72,1.89A2.33,2.33,0,0,0,100,55.3V46.74h3.23V58.82h-3Z"/><path class="cls-2" d="M105.67,43.61a1.56,1.56,0,0,1,.49-1.19,2.07,2.07,0,0,1,2.63,0,1.56,1.56,0,0,1,.49,1.19,1.6,1.6,0,0,1-.5,1.21,2,2,0,0,1-2.61,0A1.6,1.6,0,0,1,105.67,43.61Zm3.42,15.21h-3.23V46.74h3.23Z"/><path class="cls-2" d="M114.7,46.74l.1,1.4a4.21,4.21,0,0,1,3.47-1.62,3.51,3.51,0,0,1,2.85,1.12,5.3,5.3,0,0,1,.95,3.38v7.8h-3.21V51.09a2.09,2.09,0,0,0-.45-1.49,2,2,0,0,0-1.48-.46,2.23,2.23,0,0,0-2,1.16v8.52h-3.22V46.74Z"/><path class="cls-2" d="M124,52.67a7.21,7.21,0,0,1,.69-3.21,5.1,5.1,0,0,1,2-2.17,5.71,5.71,0,0,1,3-.77,5.48,5.48,0,0,1,4,1.49,6,6,0,0,1,1.72,4.07l0,.82a6.32,6.32,0,0,1-1.55,4.46,6,6,0,0,1-8.31,0A6.44,6.44,0,0,1,124,52.81Zm3.22.23a4.52,4.52,0,0,0,.65,2.63,2.11,2.11,0,0,0,1.84.91,2.14,2.14,0,0,0,1.83-.9,4.93,4.93,0,0,0,.66-2.88,4.46,4.46,0,0,0-.66-2.61,2.13,2.13,0,0,0-1.85-.93,2.11,2.11,0,0,0-1.82.92A5.06,5.06,0,0,0,127.23,52.9Z"/><path class="cls-2" d="M63.59,69.69,69.84,81.8,74,70h4.39V86.26H75V81.82l.33-7.67L71,86.26H68.68Q65.34,80.53,62,74.8l-1.5,8.71-2.6,3.42-4.73-2.35c.72-1.68,1.42-3.5,2.08-5.45a73.61,73.61,0,0,0,2.51-9.55Z"/><path class="cls-2" d="M86.62,86.49a5.94,5.94,0,0,1-4.32-1.63,5.82,5.82,0,0,1-1.66-4.35V80.2a7.33,7.33,0,0,1,.7-3.26,5.21,5.21,0,0,1,2-2.21A5.62,5.62,0,0,1,86.26,74a5,5,0,0,1,3.89,1.56A6.34,6.34,0,0,1,91.57,80v1.32H83.9a3.06,3.06,0,0,0,.94,1.9,2.84,2.84,0,0,0,2,.71,3.48,3.48,0,0,0,2.91-1.35l1.58,1.78a4.92,4.92,0,0,1-2,1.6A6.5,6.5,0,0,1,86.62,86.49Zm-.37-9.93a2,2,0,0,0-1.55.65,3.32,3.32,0,0,0-.76,1.86h4.47v-.26a2.38,2.38,0,0,0-.58-1.66A2.08,2.08,0,0,0,86.25,76.56Zm.29-7.45h3.51L87,72.57H84.35Z"/><path class="cls-2" d="M92.9,80.13a7.33,7.33,0,0,1,1.26-4.5A4.13,4.13,0,0,1,97.62,74a3.7,3.7,0,0,1,2.91,1.32V69.11h3.23V86.26h-2.91L100.69,85a3.79,3.79,0,0,1-3.09,1.51,4.07,4.07,0,0,1-3.41-1.68A7.53,7.53,0,0,1,92.9,80.13Zm3.22.24A4.71,4.71,0,0,0,96.71,83a1.91,1.91,0,0,0,1.71.9,2.16,2.16,0,0,0,2.11-1.26V77.85a2.12,2.12,0,0,0-2.09-1.27C96.89,76.58,96.12,77.85,96.12,80.37Z"/><path class="cls-2" d="M106.23,71.06a1.6,1.6,0,0,1,.48-1.2,2.09,2.09,0,0,1,2.64,0,1.6,1.6,0,0,1,.49,1.2,1.58,1.58,0,0,1-.5,1.2,2.06,2.06,0,0,1-2.62,0A1.57,1.57,0,0,1,106.23,71.06Zm3.42,15.2h-3.23V74.18h3.23Z"/><path class="cls-2" d="M117.31,83.88a2.12,2.12,0,0,0,1.45-.49,1.68,1.68,0,0,0,.57-1.3h3a4.07,4.07,0,0,1-.67,2.25,4.3,4.3,0,0,1-1.79,1.58,5.6,5.6,0,0,1-2.53.57,5.2,5.2,0,0,1-4.07-1.65,6.52,6.52,0,0,1-1.49-4.55v-.21a6.46,6.46,0,0,1,1.48-4.46A5.14,5.14,0,0,1,117.34,74,5.07,5.07,0,0,1,121,75.25a4.54,4.54,0,0,1,1.38,3.43h-3a2.18,2.18,0,0,0-.57-1.53,2,2,0,0,0-1.47-.59,1.93,1.93,0,0,0-1.7.82,4.8,4.8,0,0,0-.58,2.67v.33a4.85,4.85,0,0,0,.57,2.69A2,2,0,0,0,117.31,83.88Z"/><path class="cls-2" d="M123.69,80.11a7.14,7.14,0,0,1,.69-3.2,5,5,0,0,1,2-2.18,5.71,5.71,0,0,1,3-.77,5.5,5.5,0,0,1,4,1.49,6,6,0,0,1,1.72,4.07l0,.83a6.33,6.33,0,0,1-1.54,4.46,6,6,0,0,1-8.32,0,6.45,6.45,0,0,1-1.55-4.55Zm3.22.23a4.5,4.5,0,0,0,.64,2.63,2.32,2.32,0,0,0,3.68,0,4.93,4.93,0,0,0,.66-2.88,4.46,4.46,0,0,0-.66-2.61,2.14,2.14,0,0,0-1.85-.93,2.11,2.11,0,0,0-1.83.92A5.07,5.07,0,0,0,126.91,80.34Z"/></g></g></svg>
